<svg width="24" height="24" viewBox="0 0 24 24" fill="none" xmlns="http://www.w3.org/2000/svg">
<path d="M20.2507 6.75H3.75073C3.33652 6.75 3.00073 7.08579 3.00073 7.5L3.75073 19.5C3.75073 19.9142 4.08652 20.25 4.50073 20.25H19.5007C19.9149 20.25 20.2507 19.9142 20.2507 19.5L21.0007 7.5C21.0007 7.08579 20.6649 6.75 20.2507 6.75Z" stroke="#333F48" stroke-linecap="round" stroke-linejoin="round"/>
<path d="M15.75 9.75V5.25C15.75 4.85218 15.592 4.47064 15.3107 4.18934C15.0294 3.90804 14.6478 3.75 14.25 3.75H9.75C9.35218 3.75 8.97064 3.90804 8.68934 4.18934C8.40804 4.47064 8.25 4.85218 8.25 5.25V9.75" stroke="#333F48" stroke-linecap="round" stroke-linejoin="round"/>
</svg>
