<svg width="24" height="24" viewBox="0 0 24 24" fill="none" xmlns="http://www.w3.org/2000/svg">
<circle cx="12" cy="12" r="12" fill="#DA291C"/>
<path d="M12 10V13" stroke="white" stroke-linecap="round" stroke-linejoin="round"/>
<path d="M11.135 6.49904L5.63648 15.9986C5.5485 16.1506 5.5021 16.3231 5.50195 16.4987C5.50181 16.6743 5.54792 16.8469 5.63565 16.999C5.72338 17.1512 5.84964 17.2776 6.00172 17.3654C6.15379 17.4533 6.32633 17.4995 6.50196 17.4995H17.499C17.6746 17.4995 17.8472 17.4533 17.9992 17.3654C18.1513 17.2776 18.2776 17.1512 18.3653 16.999C18.453 16.8469 18.4991 16.6743 18.499 16.4987C18.4988 16.3231 18.4524 16.1506 18.3645 15.9986L12.8659 6.49904C12.7781 6.34728 12.6519 6.22129 12.5 6.1337C12.3481 6.04611 12.1758 6 12.0005 6C11.8251 6 11.6529 6.04611 11.5009 6.1337C11.349 6.22129 11.2228 6.34728 11.135 6.49904V6.49904Z" stroke="white" stroke-linecap="round" stroke-linejoin="round"/>
<path d="M12 15.75C12.2761 15.75 12.5 15.5261 12.5 15.25C12.5 14.9739 12.2761 14.75 12 14.75C11.7239 14.75 11.5 14.9739 11.5 15.25C11.5 15.5261 11.7239 15.75 12 15.75Z" fill="white"/>
</svg>
