<svg width="44" height="44" viewBox="0 0 44 44" fill="none" xmlns="http://www.w3.org/2000/svg">
<path fill-rule="evenodd" clip-rule="evenodd" d="M29.546 10.0889H14.4546C12.0461 10.0889 10.0862 12.0487 10.0862 14.4573V29.5486C10.0862 31.9576 12.0461 33.9176 14.4546 33.9176H29.546C31.9549 33.9176 33.9149 31.9576 33.9149 29.5486V14.4573C33.9149 12.0488 31.9549 10.0889 29.546 10.0889ZM22 29.8473C17.6751 29.8473 14.1559 26.3281 14.1559 22.0027C14.1559 17.6778 17.6751 14.1586 22 14.1586C26.3255 14.1586 29.8446 17.6778 29.8446 22.0027C29.8446 26.3281 26.3255 29.8473 22 29.8473ZM30.097 15.7807C29.073 15.7807 28.2404 14.9481 28.2404 13.9247C28.2404 12.9012 29.073 12.0686 30.097 12.0686C31.1204 12.0686 31.953 12.9012 31.953 13.9247C31.953 14.9482 31.1204 15.7807 30.097 15.7807Z" fill="#333F48"/>
<path fill-rule="evenodd" clip-rule="evenodd" d="M21.9996 17.4683C19.5029 17.4683 17.4697 19.5005 17.4697 21.9972C17.4697 24.495 19.5029 26.5277 21.9996 26.5277C24.4973 26.5277 26.5291 24.495 26.5291 21.9972C26.5291 19.5005 24.4973 17.4683 21.9996 17.4683Z" fill="#333F48"/>
<path fill-rule="evenodd" clip-rule="evenodd" d="M0 0V44H44V0H0ZM37.2288 29.5456C37.2288 33.7828 33.7828 37.2288 29.5458 37.2288H14.4544C10.2177 37.2288 6.77116 33.7828 6.77116 29.5456V14.4544C6.77116 10.2177 10.2177 6.77116 14.4544 6.77116H29.5458C33.7828 6.77116 37.2288 10.2177 37.2288 14.4544V29.5456Z" fill="#333F48"/>
</svg>
