<svg width="238" height="32" viewBox="0 0 238 32" fill="none" xmlns="http://www.w3.org/2000/svg">
<path d="M0.5 4C0.5 2.067 2.067 0.5 4 0.5H49.3333C51.2663 0.5 52.8333 2.067 52.8333 4V28C52.8333 29.933 51.2663 31.5 49.3333 31.5H4C2.067 31.5 0.5 29.933 0.5 28V4Z" fill="white" stroke="#E8E8EA"/>
<path fill-rule="evenodd" clip-rule="evenodd" d="M18.833 21.6775H16.0059L13.886 13.5897C13.7853 13.2177 13.5717 12.8888 13.2574 12.7337C12.4731 12.3442 11.6088 12.0342 10.666 11.8778V11.5664H15.2202C15.8488 11.5664 16.3202 12.0342 16.3988 12.5774L17.4987 18.4114L20.3245 11.5664H23.073L18.833 21.6775ZM24.6446 21.6775H21.9746L24.1732 11.5664H26.8431L24.6446 21.6775ZM30.2968 14.3683C30.3753 13.8237 30.8468 13.5123 31.3967 13.5123C32.261 13.4341 33.2024 13.5905 33.9881 13.9787L34.4595 11.8017C33.6739 11.4903 32.8096 11.334 32.0253 11.334C29.4339 11.334 27.5482 12.7345 27.5482 14.6783C27.5482 16.157 28.8839 16.9335 29.8267 17.4012C30.8468 17.8676 31.2396 18.179 31.161 18.6454C31.161 19.345 30.3753 19.6564 29.591 19.6564C28.6482 19.6564 27.7054 19.4232 26.8425 19.0336L26.3711 21.2119C27.3139 21.6001 28.3339 21.7565 29.2768 21.7565C32.1824 21.8333 33.9881 20.4341 33.9881 18.334C33.9881 15.6893 30.2968 15.5343 30.2968 14.3683ZM43.3329 21.6775L41.2129 11.5664H38.9358C38.4644 11.5664 37.993 11.8778 37.8358 12.3442L33.9102 21.6775H36.6587L37.2073 20.2002H40.5844L40.8986 21.6775H43.3329ZM39.3283 14.291L40.1126 18.1017H37.9141L39.3283 14.291Z" fill="#172B85"/>
<path d="M61.834 4C61.834 2.067 63.401 0.5 65.334 0.5H110.667C112.6 0.5 114.167 2.067 114.167 4V28C114.167 29.933 112.6 31.5 110.667 31.5H65.334C63.401 31.5 61.834 29.933 61.834 28V4Z" fill="white" stroke="#E8E8EA"/>
<path fill-rule="evenodd" clip-rule="evenodd" d="M88.3337 22.8755C86.745 24.2464 84.6842 25.074 82.4323 25.074C77.4075 25.074 73.334 20.9532 73.334 15.87C73.334 10.7868 77.4075 6.66602 82.4323 6.66602C84.6842 6.66602 86.745 7.49359 88.3337 8.86449C89.9224 7.49359 91.9832 6.66602 94.2351 6.66602C99.26 6.66602 103.333 10.7868 103.333 15.87C103.333 20.9532 99.26 25.074 94.2351 25.074C91.9832 25.074 89.9224 24.2464 88.3337 22.8755Z" fill="#ED0006"/>
<path fill-rule="evenodd" clip-rule="evenodd" d="M88.334 22.8755C90.2904 21.1873 91.531 18.6752 91.531 15.87C91.531 13.0648 90.2904 10.5527 88.334 8.86449C89.9227 7.49359 91.9835 6.66602 94.2354 6.66602C99.2602 6.66602 103.334 10.7868 103.334 15.87C103.334 20.9532 99.2602 25.074 94.2354 25.074C91.9835 25.074 89.9227 24.2464 88.334 22.8755Z" fill="#F9A000"/>
<path fill-rule="evenodd" clip-rule="evenodd" d="M88.3337 22.8763C90.2901 21.1881 91.5307 18.676 91.5307 15.8707C91.5307 13.0655 90.2901 10.5534 88.3337 8.86523C86.3773 10.5534 85.1367 13.0655 85.1367 15.8707C85.1367 18.676 86.3773 21.1881 88.3337 22.8763Z" fill="#FF5E00"/>
<path d="M123.168 4C123.168 2.067 124.735 0.5 126.668 0.5H172.001C173.934 0.5 175.501 2.067 175.501 4V28C175.501 29.933 173.934 31.5 172.001 31.5H126.668C124.735 31.5 123.168 29.933 123.168 28V4Z" fill="white" stroke="#E8E8EA"/>
<path d="M156.371 16.3824C157.056 16.3973 157.745 16.3521 158.427 16.4058C159.118 16.5347 159.285 17.5805 158.671 17.9231C158.252 18.1487 157.755 18.0071 157.301 18.0469H156.371V16.3824ZM158.823 14.4984C158.975 15.0355 158.458 15.5177 157.94 15.4437H156.371C156.382 14.9372 156.35 14.3875 156.387 13.9076C157.016 13.9253 157.65 13.8715 158.275 13.9358C158.544 14.0032 158.768 14.2239 158.823 14.4984ZM162.599 6.53324C162.628 7.55898 162.603 8.63893 162.612 9.68547C162.61 13.9403 162.616 18.1951 162.608 22.4502C162.581 24.0448 161.168 25.4304 159.584 25.4622C157.999 25.4686 156.414 25.4632 154.828 25.465V19.0325C156.556 19.0236 158.284 19.0506 160.01 19.019C160.811 18.9687 161.689 18.4402 161.726 17.5588C161.82 16.6736 160.986 16.0613 160.193 15.9645C159.889 15.9566 159.898 15.8758 160.193 15.8405C160.949 15.6771 161.543 14.8949 161.32 14.1115C161.131 13.2876 160.22 12.9687 159.463 12.9703C157.918 12.9598 156.373 12.9688 154.829 12.9658C154.839 11.7649 154.808 10.5627 154.845 9.36276C154.968 7.79693 156.416 6.50563 157.978 6.53365C159.518 6.53342 161.059 6.53342 162.599 6.53336V6.53324Z" fill="url(#paint0_linear_457_12153)"/>
<path d="M137.375 9.52523C137.415 7.93314 138.834 6.55891 140.415 6.53564C141.995 6.53078 143.574 6.53494 145.153 6.53353C145.149 11.8603 145.162 17.1877 145.147 22.5142C145.086 24.0869 143.682 25.4349 142.118 25.4628C140.536 25.4685 138.953 25.4636 137.371 25.4652V18.8159C138.908 19.179 140.52 19.3335 142.087 19.0927C143.025 18.9419 144.05 18.4816 144.367 17.5093C144.601 16.6775 144.47 15.8022 144.504 14.9485V12.9661H141.791C141.779 14.2772 141.816 15.5907 141.771 16.9003C141.698 17.7052 140.901 18.2166 140.142 18.1893C139.2 18.1993 137.334 17.507 137.334 17.507C137.33 15.0504 137.362 11.9739 137.375 9.52546V9.52523Z" fill="url(#paint1_linear_457_12153)"/>
<path d="M146.166 13.766C146.023 13.7963 146.137 13.2795 146.101 13.0834C146.11 11.8438 146.08 10.6029 146.117 9.36413C146.239 7.79168 147.699 6.49716 149.267 6.53397H153.883C153.879 11.8607 153.892 17.1881 153.877 22.5146C153.816 24.0873 152.412 25.4353 150.848 25.4632C149.266 25.4692 147.683 25.4642 146.101 25.4657V18.1804C147.181 19.0672 148.65 19.2052 149.997 19.2076C151.012 19.2072 152.021 19.0507 153.006 18.8167V17.482C151.896 18.0356 150.59 18.3873 149.358 18.0692C148.499 17.8554 147.876 17.0252 147.89 16.1388C147.79 15.2169 148.331 14.2436 149.236 13.9695C150.361 13.6174 151.587 13.8867 152.641 14.3445C152.867 14.4628 153.097 14.6095 153.006 14.2319V13.1829C151.243 12.7633 149.366 12.609 147.595 13.0654C147.082 13.21 146.583 13.4294 146.166 13.7661V13.766Z" fill="url(#paint2_linear_457_12153)"/>
<path d="M184.5 4C184.5 2.067 186.067 0.5 188 0.5H233.333C235.266 0.5 236.833 2.067 236.833 4V28C236.833 29.933 235.266 31.5 233.333 31.5H188C186.067 31.5 184.5 29.933 184.5 28V4Z" fill="white" stroke="#E8E8EA"/>
<path d="M199.424 8.00097H203.214C204.61 7.97836 206.141 8.3415 206.141 10.0323C206.141 10.7585 205.71 11.3485 205.075 11.6662C205.937 11.9158 206.471 12.6649 206.471 13.584C206.471 15.5131 205.052 16.103 203.316 16.103H199.424V8.00097ZM201.534 11.1897H203.169C203.532 11.1897 204.031 10.9967 204.031 10.4181C204.031 9.82797 203.611 9.63518 203.169 9.63518H201.534V11.1897ZM201.534 14.4123H203.225C203.895 14.4123 204.36 14.1741 204.36 13.5046C204.36 12.7896 203.861 12.5513 203.225 12.5513H201.534V14.4123Z" fill="#333333"/>
<path d="M209.817 8.00195H211.961L214.991 16.104H212.79L212.291 14.6516H209.465L208.954 16.104H206.787L209.817 8.00195ZM209.953 13.0858H211.791L210.895 10.249H210.872L209.953 13.0858Z" fill="#333333"/>
<path d="M215.582 8.00195H217.75L220.564 12.9949H220.586V8.00195H222.572V16.104H220.405L217.591 11.0546H217.568V16.104H215.582V8.00195Z" fill="#333333"/>
<path d="M224.012 8.00195H226.122V11.1113L228.789 8.00195H231.41L228.414 11.1907L231.785 16.1041H229.164L226.985 12.7001L226.122 13.6079V16.1042H224.012V8.00205L224.012 8.00195Z" fill="#333333"/>
<path d="M194.116 19.0433H192.452V23.3724H190.998V19.0433H189.334V17.793H194.116V19.0433Z" fill="#333333"/>
<path d="M194.756 17.791H197.6C198.585 17.791 199.554 18.2366 199.554 19.3616C199.554 19.9633 199.265 20.5338 198.679 20.7606V20.776C199.273 20.9169 199.444 21.5808 199.491 22.1123C199.507 22.3467 199.531 23.1671 199.726 23.3705H198.288C198.163 23.183 198.139 22.636 198.124 22.4798C198.084 21.9171 197.991 21.3389 197.311 21.3389H196.209V23.3705H194.756V17.791ZM196.21 20.2133H197.428C197.866 20.2133 198.1 19.979 198.1 19.5571C198.1 19.1431 197.772 18.9552 197.366 18.9552H196.21C196.21 18.9552 196.21 20.2133 196.21 20.2133Z" fill="#333333"/>
<path d="M201.915 17.791H203.392L205.478 23.3704H203.962L203.618 22.3701H201.672L201.321 23.3704H199.828L201.915 17.791ZM202.009 21.2918H203.274L202.657 19.338H202.641L202.009 21.2918Z" fill="#333333"/>
<path d="M205.885 17.791H207.377L209.315 21.2293H209.331V17.791H210.699V23.3704H209.206L207.268 19.8932H207.252V23.3704H205.885V17.791Z" fill="#333333"/>
<path d="M212.825 21.4952C212.856 22.1516 213.262 22.3624 213.88 22.3624C214.317 22.3624 214.77 22.2063 214.77 21.7921C214.77 21.2998 213.973 21.2061 213.169 20.9792C212.371 20.7527 211.535 20.3934 211.535 19.3695C211.535 18.1506 212.762 17.6738 213.809 17.6738C214.919 17.6738 216.036 18.2128 216.044 19.471H214.591C214.614 18.9631 214.137 18.799 213.692 18.799C213.38 18.799 212.989 18.9083 212.989 19.2758C212.989 19.7055 213.794 19.7836 214.606 20.0103C215.411 20.2369 216.224 20.6119 216.224 21.6199C216.224 23.0345 215.02 23.4878 213.794 23.4878C212.512 23.4878 211.379 22.925 211.371 21.4951H212.825V21.4952Z" fill="#333333"/>
<path d="M216.902 17.791H221.013V18.9553H218.356V20.0962H220.653V21.2212H218.356V23.3704H216.902V17.791Z" fill="#333333"/>
<path d="M221.678 17.791H226.124V18.9553H223.131V19.9321H225.866V21.0574H223.131V22.1202H226.202V23.3703H221.678L221.678 17.791Z" fill="#333333"/>
<path d="M227.031 17.791H229.876C230.86 17.791 231.829 18.2366 231.829 19.3616C231.829 19.9633 231.54 20.5338 230.954 20.7606V20.776C231.548 20.9169 231.72 21.5808 231.767 22.1123C231.782 22.3467 231.806 23.1671 232.001 23.3705H230.563C230.438 23.183 230.415 22.636 230.399 22.4798C230.36 21.9171 230.266 21.3389 229.586 21.3389H228.485V23.3705H227.031V17.791ZM228.485 20.2133H229.704C230.141 20.2133 230.376 19.979 230.376 19.5571C230.376 19.1431 230.048 18.9552 229.641 18.9552H228.485V20.2133Z" fill="#333333"/>
<path d="M198.131 8H189.334V9.76164H198.131V8Z" fill="#D92B2B"/>
<path d="M198.131 14.3418H189.334V16.1033H198.131V14.3418Z" fill="#D92B2B"/>
<path d="M198.131 11.1699H189.334V12.9316H198.131V11.1699Z" fill="#D92B2B"/>
<defs>
<linearGradient id="paint0_linear_457_12153" x1="154.775" y1="15.5943" x2="162.563" y2="15.5943" gradientUnits="userSpaceOnUse">
<stop stop-color="#58B03A"/>
<stop offset="1" stop-color="#55B330"/>
</linearGradient>
<linearGradient id="paint1_linear_457_12153" x1="137.205" y1="16.1807" x2="145.026" y2="16.1807" gradientUnits="userSpaceOnUse">
<stop stop-color="#0F6EB6"/>
<stop offset="1" stop-color="#006DBA"/>
</linearGradient>
<linearGradient id="paint2_linear_457_12153" x1="146.089" y1="15.7784" x2="153.882" y2="15.7784" gradientUnits="userSpaceOnUse">
<stop stop-color="#DE0D3D"/>
<stop offset="1" stop-color="#E30138"/>
</linearGradient>
</defs>
</svg>
