<svg width="44" height="44" viewBox="0 0 44 44" fill="none" xmlns="http://www.w3.org/2000/svg">
<path d="M19.3488 32.546C19.3488 32.6 19.3488 32.6676 19.3189 32.7053C19.1161 32.9669 18.8747 33.1851 18.5581 33.301C18.2829 33.4014 18.0637 33.2788 18.0058 32.993C17.9826 32.88 17.9817 32.7613 17.9817 32.6454C17.9807 30.5165 17.9749 26.1516 17.972 26.0985H16.4012C16.4012 26.1574 16.3992 32.238 16.4031 33.3869C16.4041 33.6978 16.4369 34.0067 16.5663 34.2954C16.7053 34.6082 16.9361 34.8062 17.2798 34.8631C17.5318 34.9066 17.778 34.8786 18.0174 34.7965C18.5079 34.6275 18.8921 34.3089 19.231 33.9266C19.2609 33.8928 19.2928 33.86 19.3498 33.7992V34.7531H20.9245V30.5793C20.9245 29.133 20.9245 26.085 20.9245 26.085L19.3488 26.0888V32.546Z" fill="#333F48"/>
<path d="M26.7926 26.7747C26.4605 26.067 25.7624 25.8797 25.1571 26.0313C24.7902 26.124 24.4928 26.3354 24.2485 26.6087C24.1674 26.7004 24.0786 26.878 24.0786 26.878C24.0786 26.878 24.0786 24.2645 24.0786 23.0151H22.501V34.7506H24.0786V34.0921C24.0786 34.0921 24.1906 34.2109 24.2312 34.2543C24.5932 34.6473 25.0325 34.8626 25.5741 34.8674C26.2403 34.8742 26.7038 34.5517 26.9142 33.9183C27.0117 33.6239 27.0436 33.3207 27.0446 33.0137C27.0465 31.3733 27.0465 29.733 27.0436 28.0926C27.0436 27.6388 26.9886 27.1929 26.7926 26.7747ZM25.4197 32.8178C25.4197 32.9056 25.409 32.9945 25.3907 33.0804C25.3183 33.4241 25.0566 33.5786 24.6859 33.5023C24.461 33.456 24.2852 33.3266 24.1346 33.1634C24.1279 33.1557 24.0835 33.0958 24.0835 33.0958V32.9674L24.0796 27.7567C24.0796 27.7567 24.1134 27.6602 24.1877 27.5955C24.3731 27.4314 24.5778 27.328 24.8336 27.3531C25.0518 27.3744 25.2256 27.4748 25.3067 27.6766C25.3675 27.8301 25.4158 28.001 25.4168 28.1651C25.4245 29.7156 25.4216 31.2662 25.4197 32.8178Z" fill="#333F48"/>
<path d="M21.1207 16.5492C21.4885 16.5492 21.7877 16.25 21.7877 15.8822V11.1754C21.7877 10.8075 21.4884 10.5083 21.1207 10.5083C20.7529 10.5083 20.4536 10.8076 20.4536 11.1754V15.8822C20.4535 16.2499 20.7528 16.5492 21.1207 16.5492Z" fill="#333F48"/>
<path d="M16.4044 23.0142H10.9398V24.6959H12.781V34.7496H14.5594V24.6921H16.4044V23.0142Z" fill="#333F48"/>
<path d="M31.3 31.6736V32.7868C31.3 33.1759 30.9852 33.4906 30.5971 33.4906C30.208 33.4906 29.8933 33.1759 29.8933 32.7868V30.6212H32.9143C32.9143 30.6212 32.9317 29.1102 32.9191 28.4248C32.9143 28.1322 32.8921 27.8358 32.8322 27.55C32.6758 26.8085 32.2771 26.2495 31.5307 26.0043C31.3116 25.9319 31.076 25.8942 30.8452 25.8797C30.0777 25.8305 29.4057 26.0497 28.8805 26.6376C28.4199 27.1523 28.2597 27.7721 28.2587 28.4441C28.2558 29.7291 28.25 31.0151 28.2626 32.3002C28.2664 32.6275 28.3031 32.9616 28.3775 33.2802C28.5377 33.9647 28.9114 34.5025 29.5708 34.7998C30.0526 35.018 30.5614 35.0286 31.075 34.9533C31.9034 34.8317 32.4682 34.3876 32.7414 33.5872C32.9471 32.9876 32.923 31.6736 32.923 31.6736H31.3ZM29.8933 28.0628C29.8933 27.6747 30.208 27.359 30.5971 27.359C30.9852 27.359 31.3 27.6747 31.3 28.0628V29.2783H29.8933V28.0628Z" fill="#333F48"/>
<path d="M0 0V44H44V0H0ZM24.7873 9.17111H26.3896V15.8157C26.3896 15.9037 26.3967 15.9927 26.4121 16.079C26.4607 16.3528 26.6631 16.4817 26.9268 16.3903C27.2482 16.2791 27.4935 16.0565 27.7015 15.7943C27.7311 15.7569 27.7256 15.687 27.7256 15.632V9.17111H29.3396L29.3392 17.884H27.7248L27.7267 16.948C27.5482 17.1238 27.3958 17.288 27.2284 17.4355C26.9316 17.697 26.5955 17.8919 26.2022 17.9689C25.5985 18.0869 25.0843 17.8961 24.8918 17.2708C24.8277 17.0626 24.7889 16.8381 24.7873 16.6207V9.17111ZM21.1202 8.95301C22.397 8.95301 23.432 9.98801 23.432 11.2648V15.7889C23.432 17.0657 22.397 18.1007 21.1202 18.1007C19.8435 18.1007 18.8085 17.0657 18.8085 15.7889V11.2648C18.8084 9.98801 19.8434 8.95301 21.1202 8.95301ZM14.9015 6.08929C14.9015 6.08929 15.6358 9.2079 15.9863 10.6852H15.9868C16.3373 9.2079 17.0716 6.08929 17.0716 6.08929H18.9088C18.9088 6.08929 17.4972 10.7706 16.866 12.8584C16.8432 12.9338 16.8329 13.0159 16.8329 13.0949L16.8337 17.8822H15.1395L15.1402 13.0949C15.1402 13.0159 15.1298 12.9339 15.1071 12.8584C14.4759 10.7706 13.0643 6.08929 13.0643 6.08929H14.9015ZM35.1029 33.8754C35.1029 36.0168 33.3921 37.7663 31.2516 37.8116C25.0851 37.9439 18.9156 37.9439 12.7481 37.8116C10.6086 37.7663 8.89778 36.0168 8.89778 33.8754V24.2437C8.89778 22.1033 10.6086 20.3538 12.7481 20.3084C18.9156 20.1762 25.0851 20.1762 31.2516 20.3084C33.3921 20.3538 35.1029 22.1033 35.1029 24.2437V33.8754Z" fill="#333F48"/>
</svg>
